<svg width="81" height="80" viewBox="0 0 81 80" fill="none" xmlns="http://www.w3.org/2000/svg">
<g clip-path="url(#clip0_582_4)">
<path fill-rule="evenodd" clip-rule="evenodd" d="M31.505 50.8983L58.0983 31.2417C59.4016 30.275 61.265 30.6517 61.8883 32.1483C65.155 40.045 63.695 49.5317 57.1883 56.045C50.685 62.5583 41.6316 63.985 33.3583 60.7317L24.3216 64.9217C37.285 73.7917 53.025 71.5983 62.8616 61.745C70.665 53.9317 73.0816 43.2817 70.8216 33.6783L70.8416 33.7017C67.565 19.595 71.6483 13.955 80.0083 2.42499C80.2083 2.15166 80.4083 1.87833 80.605 1.59833L69.6016 12.615V12.5817L31.495 50.905M26.015 55.675C16.7083 46.775 18.315 33.005 26.2516 25.0617C32.1216 19.185 41.7416 16.785 50.1383 20.3117L59.155 16.145C57.2809 14.7664 55.2304 13.6453 53.0583 12.8117C47.5976 10.5767 41.5979 10.0063 35.8139 11.1724C30.0299 12.3384 24.7199 15.1888 20.5516 19.365C12.1083 27.8183 9.45165 40.8183 14.0116 51.9117C17.4183 60.2017 11.835 66.065 6.21165 71.985C4.21498 74.085 2.21498 76.1817 0.60498 78.4017L26.005 55.685" fill="white"/>
</g>
<defs>
<clipPath id="clip0_582_4">
<rect width="80" height="80" fill="white" transform="translate(0.60498)"/>
</clipPath>
</defs>
</svg>
