<svg width="80" height="80" viewBox="0 0 80 80" fill="none" xmlns="http://www.w3.org/2000/svg">
<g clip-path="url(#clip0_585_50)">
<path d="M8 8H72V72H8V8Z" fill="#F0DB4F"/>
<path d="M66.762 56.7361C66.2935 53.816 64.3893 51.3643 58.7498 49.0768C56.7909 48.1764 54.6068 47.5316 53.9559 46.0472C53.7247 45.1833 53.6943 44.6966 53.8403 44.1734C54.2601 42.476 56.2859 41.9468 57.892 42.4335C58.9262 42.7802 59.9057 43.5773 60.4958 44.8487C63.2578 43.0601 63.2517 43.0722 65.1802 41.8434C64.4745 40.7484 64.0973 40.2434 63.635 39.775C61.9741 37.9195 59.711 36.9643 56.0912 37.0373C55.4646 37.1164 54.832 37.2015 54.2053 37.2807C52.3985 37.7369 50.6768 38.686 49.6669 39.9575C46.6373 43.3947 47.5011 49.4114 51.1878 51.8875C54.8198 54.613 60.1551 55.2335 60.8365 57.7826C61.4996 60.9035 58.543 61.9133 55.6046 61.5544C53.4388 61.1042 52.2343 60.0031 50.9323 58.0016C48.5354 59.3887 48.5354 59.3887 46.0715 60.8061C46.6556 62.0837 47.27 62.6617 48.2495 63.7689C52.8852 68.4715 64.4867 68.2404 66.5674 61.1225C66.6525 60.8791 67.2122 59.2487 66.762 56.7361ZM42.7924 37.4145H36.8061C36.8061 42.5856 36.7818 47.7202 36.7818 52.8913C36.7818 56.1825 36.9521 59.2 36.4168 60.1247C35.5407 61.9437 33.2715 61.7186 32.2373 61.3657C31.1848 60.8486 30.6495 60.1125 30.029 59.0722C29.8586 58.7741 29.7309 58.543 29.6882 58.5247C28.0639 59.5164 26.4456 60.514 24.8213 61.5057C25.6305 63.1665 26.8228 64.6084 28.3498 65.5452C30.6312 66.914 33.6973 67.3338 36.9035 66.5977C38.9902 65.9893 40.7909 64.73 41.7338 62.8137C43.0966 60.3011 42.8046 57.2593 42.7924 53.8951C42.8228 48.4076 42.7924 42.9202 42.7924 37.4145Z" fill="#323330"/>
</g>
<defs>
<clipPath id="clip0_585_50">
<rect x="8" y="8" width="64" height="64" rx="3.55556" fill="white"/>
</clipPath>
</defs>
</svg>
