<svg width="80" height="80" viewBox="0 0 80 80" fill="none" xmlns="http://www.w3.org/2000/svg">
<g clip-path="url(#clip0_526_5)">
<g clip-path="url(#clip1_526_5)">
<path fill-rule="evenodd" clip-rule="evenodd" d="M0 37.859C0 36.2366 0.676884 34.6867 1.86977 33.5776L17.6348 18.9196C21.0442 15.7496 26.3469 15.7496 29.7564 18.9196L45.5213 33.5776C46.7141 34.6867 47.3911 36.2366 47.3911 37.859V56.9538C47.3911 61.8136 43.4218 65.7534 38.5257 65.7534H8.86545C3.9692 65.7534 0 61.8136 0 56.9538L0 37.859ZM14.7758 59.887C16.4078 59.887 17.7309 58.5736 17.7309 56.9538C17.7309 55.3337 16.4078 54.0205 14.7758 54.0205H8.86545C7.23336 54.0205 5.9103 55.3337 5.9103 56.9538C5.9103 58.5736 7.23336 59.887 8.86545 59.887H14.7758ZM53.3014 56.9538V38.3651H80V56.9538C80 61.8136 76.0307 65.7534 71.1346 65.7534H50.3474C52.2022 63.3022 53.3014 60.2554 53.3014 56.9538ZM76.9697 32.4985H53.0062L44.3227 24.4248L50.2436 18.9196C53.6531 15.7496 58.9558 15.7496 62.3653 18.9196L76.9697 32.4985Z" fill="#D14424"/>
</g>
</g>
<defs>
<clipPath id="clip0_526_5">
<rect width="80" height="80" fill="white"/>
</clipPath>
<clipPath id="clip1_526_5">
<rect width="80" height="51.5069" fill="white" transform="translate(0 14.2466)"/>
</clipPath>
</defs>
</svg>
